[img]http://img10.imageshack.us/img10/5553/sharkca.jpg[/img]
[code]
Shark Night 2011 TS READNFO XViD - REVELATiON

IMDb URL.......... http://www.imdb.com/title/tt1633356/
IMDB Rating.......:6.4/10                                                                 
Runtime...........:1h 17mn
Subtitles.........:NIL
Language..........:ENGLISH
Resolution........:720 x 272                                      

VIDEO:
Chelyusti.2011.D.TS  Thanks
AUDIO:
OWN

VIDEO:
ID                               : 0
Format                           : MPEG-4 Visual
Format profile                   : Advanced Simple@L5
Format settings, BVOP            : 2
Format settings, QPel            : No
Format settings, GMC             : No warppoints
Format settings, Matrix          : Default (MPEG)
Muxing mode                      : Packed bitstream
Codec ID                         : XVID
Codec ID/Hint                    : XviD
Duration                         : 1h 17mn
Bit rate                         : 2 409 Kbps
Width                            : 720 pixels
Height                           : 272 pixels
Display aspect ratio             : 2.647
Frame rate                       : 25.000 fps
Color space                      : YUV
Chroma subsampling               : 4:2:0
Bit depth                        : 8 bits
Scan type                        : Progressive
Compression mode                 : Lossy
Bits/(Pixel*Frame)               : 0.492
Stream size                      : 1.31 GiB (95%)
Writing library                  : XviD 64

AUDIO:
ID                               : 1
Format                           : MPEG Audio
Format version                   : Version 1
Format profile                   : Layer 3
Mode                             : Joint stereo
Mode extension                   : MS Stereo
Codec ID                         : 55
Codec ID/Hint                    : MP3
Duration                         : 1h 17mn
Bit rate mode                    : Constant
Bit rate                         : 128 Kbps
Channel(s)                       : 2 channels
Sampling rate                    : 44.1 KHz
Compression mode                 : Lossy
Stream size                      : 71.3 MiB (5%)
Alignment                        : Split accross interleaves
Interleave, duration             : 40 ms (1.00 video frame)

Plot:
A weekend at a lake house in the Louisiana Gulf turns into a nightmare for seven vacationers as they are subjected to fresh-water shark attacks.
[/code]
Screens:
[img]http://img64.imageshack.us/img64/848/38238315.png[/img]
[img]http://img716.imageshack.us/img716/8286/39648770.png[/img]
[img]http://img163.imageshack.us/img163/5265/70822685.png[/img]